        <svg width="107px" height="38px" viewBox="0 0 107 38" xmlns="http://www.w3.org/2000/svg">
        <g stroke="none" strokeWidth={1} fill="none" fillRule="evenodd">
          <g>
            <g transform="translate(6.000000, 5.000000)">
              <path d="M66.7292007,18.7331138 C66.2349103,19.1304006 65.8996166,19.6889101 65.341398,20.4074883 C64.7825204,21.1268907 64.1681175,21.9259153 63.5322953,22.8053865 C62.8963083,23.6853521 62.2476346,24.635049 61.6030799,25.5903508 C60.95869,26.5456526 60.3699902,27.3715477 59.8544454,28.3606436 L66.8939641,28.3606436 L66.8939641,31.163082 L56.0195759,31.163082 L56.0195759,29.0343828 C56.5138662,28.2780541 56.906168,27.4551263 57.4732838,26.5655994 C58.0402349,25.676567 58.6424454,24.782754 59.2441615,23.8839955 C59.8455481,22.9855668 60.4517129,22.0999962 61.0446966,21.2863 C61.6376803,20.473428 62.1748091,19.7884791 62.6389478,19.1290818 L56.3491028,19.1290818 L56.3491028,16.3266434 L66.7292007,16.3266434 L66.7292007,18.7331138 Z" fill="#212223" />
              <path d="M79.5807504,18.7331138 C79.2512235,19.1304006 78.801584,19.6889101 78.2458369,20.4074883 C77.6897602,21.1268907 77.1013899,21.9259153 76.4683687,22.8053865 C75.8353475,23.6853521 75.2013377,24.635049 74.5597488,25.5903508 C73.9184894,26.5456526 73.344124,27.3715477 72.8308858,28.3606436 L79.7455139,28.3606436 L79.7455139,31.163082 L69.0358891,31.163082 L69.0358891,29.0343828 C69.5301794,28.2780541 69.9071582,27.4551263 70.4716378,26.5655994 C71.0361175,25.676567 71.6300897,24.782754 72.2290049,23.8839955 C72.8275905,22.9855668 73.4281533,22.0999962 74.0183361,21.2863 C74.6085188,20.473428 75.14054,19.7884791 75.6023719,19.1290818 L69.365416,19.1290818 L69.365416,16.3266434 L79.5807504,16.3266434 L79.5807504,18.7331138 Z" fill="#212223" />
              <path d="M85.6769984,9.40312046 C85.6769984,9.40295561 85.6532724,9.40196651 85.6455285,9.40196651 C85.1092235,9.40196651 82.7652985,9.8277723 82.2311354,10.3613895 C82.2299821,10.3625435 82.2169657,10.3666647 82.2169657,10.3681484 L82.2169657,31.1630655 L85.6769984,31.1630655 L85.6769984,9.40312046 Z" fill="#212223" />
              <path d="M97.562194,22.2611859 C97.562194,21.7666379 97.4956295,21.3485801 97.363654,20.9227743 C97.2310194,20.4971333 97.0374223,20.1333109 96.782039,19.8210863 C96.5269852,19.5090265 96.2149232,19.2653792 95.8460178,19.0855286 C95.4774419,18.9058429 95.0376883,18.8168242 94.5272511,18.8168242 C93.9975365,18.8168242 93.5342217,18.9168878 93.1373065,19.1155312 C92.7402266,19.3145043 92.4044387,19.5749663 92.130437,19.8964224 C91.8561059,20.2182083 91.6433962,20.5777447 91.4923082,20.9934946 C91.3407258,21.409904 91.23676,21.7666379 91.1802462,22.2611859 L97.562194,22.2611859 Z M87.606362,23.8127477 C87.606362,22.5076356 87.8001238,21.3632517 88.187977,20.3789364 C88.5750064,19.3956102 89.0905512,18.5772982 89.7337878,17.9244949 C90.3762005,17.2716916 91.1136817,16.7801109 91.9462315,16.4487638 C92.7779574,16.1180761 93.6289607,15.9522377 94.498747,15.9522377 C96.5411548,15.9522377 98.1339232,16.5860833 99.2780406,17.8536097 C100.422158,19.1211361 100.994217,21.0132766 100.994217,23.529042 C100.994217,23.7184539 100.989109,23.8950075 100.979882,24.1314014 C100.970326,24.368125 100.956156,24.5690763 100.937209,24.7339256 L91.1517421,24.7339256 C91.2464811,26.0527202 91.6669574,26.8842201 92.4139949,27.5366937 C93.1607029,28.189497 94.2436931,28.5340321 95.6618122,28.5340321 C96.4935382,28.5340321 97.2544158,28.4677627 97.9449395,28.3161013 C98.6351336,28.1647696 99.1786883,28.0083276 99.5757682,27.8382031 L100.029692,30.6498731 C99.8403783,30.7446615 99.5803816,30.8450547 99.2498661,30.9490746 C98.9186915,31.0532594 98.5405594,31.1482126 98.1149754,31.2332748 C97.6895561,31.3186668 97.2310194,31.3897168 96.7396948,31.446425 C96.2477111,31.503298 95.7468302,31.5316521 95.2362282,31.5316521 C93.9316312,31.5316521 92.7967405,31.3376245 91.8327095,30.9500637 C90.8681842,30.5623381 90.0741891,30.0232808 89.4502299,29.3327271 C88.8257763,28.6423381 88.3626263,27.8286419 88.0602853,26.8921329 C87.7574501,25.9556239 87.606362,24.9294369 87.606362,23.8127477 L87.606362,23.8127477 Z" fill="#212223" />
              <path d="M25.7030995,16.3266105 L25.7030995,24.096783 C25.7030995,25.6857656 25.5063719,26.8212477 25.0427276,27.5020754 C24.5808956,28.1814194 23.792832,28.5211739 22.6444307,28.5233169 C21.4961941,28.5211739 20.7272431,28.1814194 20.2654111,27.5020754 C19.8017667,26.8212477 19.6068515,25.6857656 19.6068515,24.096783 L19.6068515,16.3266105 L16.1468189,16.3266105 L16.1468189,24.6360052 C16.1468189,25.6387835 16.2369445,26.5614452 16.4452055,27.4028361 C16.6528075,28.2448864 16.9915612,28.9685749 17.4736591,29.5737368 C17.9555922,30.179558 18.5950392,30.646741 19.3990848,30.9873197 C20.2023067,31.3275686 21.469832,31.4927477 22.6612365,31.4927477 L22.6617308,31.4927477 L22.6623899,31.4927477 C23.8537945,31.4927477 25.1244502,31.3275686 25.9278369,30.9873197 C26.7318825,30.646741 27.3746248,30.1769204 27.8567227,29.5710992 C28.3388206,28.9659373 28.6637341,28.2435676 28.8715008,27.4015173 C29.0795971,26.5601264 29.1631321,25.6387835 29.1631321,24.6360052 L29.1631321,16.3266105 L25.7030995,16.3266105 Z" fill="#212223" />
              <path d="M3.51704078,23.6995456 C3.51704078,22.2427722 3.8055416,21.088827 4.3822137,20.2373803 C4.95921533,19.3859335 5.87134584,18.9601278 7.11942904,18.9601278 C7.6863801,18.9601278 8.20011256,19.0453549 8.70099347,19.215809 C9.20220392,19.3859335 9.55628059,19.5753454 9.8858075,19.7832204 L9.8858075,28.3250526 C9.72104405,28.3820905 9.34423002,28.4343477 8.95637684,28.4813298 C8.56901794,28.5286415 8.11114029,28.552215 7.56264274,28.552215 C6.29610604,28.552215 5.30851387,28.122288 4.5896509,27.2607854 C3.87095269,26.4001072 3.51704078,25.2130272 3.51704078,23.6995456 M0.524771615,26.9770798 C0.874729201,27.9328761 1.37561011,28.7506936 2.02774388,29.4320158 C2.68020718,30.1130083 3.4700832,30.6337673 4.39638336,30.9928091 C5.32284829,31.3520158 6.37222675,31.5317016 7.54451876,31.5317016 C8.67940946,31.5317016 9.75515008,31.4466393 10.785416,31.2765148 C11.8165057,31.1063903 12.6867863,30.917473 13.3458401,30.7087738 L13.3458401,9.40315343 C12.7869625,9.40199948 10.4385889,9.82780527 9.90442577,10.3614225 C9.90327243,10.3624116 9.8858075,16.8315934 9.8858075,16.8315934 C9.55628059,16.6238832 9.02294127,16.4344714 8.44593964,16.2643469 C7.86926754,16.0937278 7.241354,16.0086656 6.54160359,16.0086656 C5.50161664,16.0086656 4.57548124,16.193132 3.75314682,16.5622296 C2.93064763,16.9309975 2.24786786,17.4560426 1.69887602,18.1372 C1.15070799,18.8181925 0.731549755,19.6368342 0.438435563,20.5918063 C0.145156607,21.5476026 0,22.6023086 0,23.7562538 C0,24.9482792 0.174978793,26.0221077 0.524771615,26.9770798 Z" fill="#212223" />
              <path d="M40.7285713,27.260769 C40.0098731,28.1222715 39.0170085,28.5521985 37.7504718,28.5521985 C37.2019742,28.5521985 36.7477214,28.5286251 36.3603625,28.4813133 C35.9725093,28.4343312 35.58894,28.382074 35.4241765,28.3250361 L35.4241765,19.7832039 C35.7537034,19.5753289 36.1145354,19.3859171 36.6157458,19.2157926 C37.1166268,19.0453384 37.6440346,18.9601113 38.2109856,18.9601113 C39.4590688,18.9601113 40.3677393,19.3859171 40.9447409,20.2373638 C41.5214131,21.0888105 41.8082662,22.2427557 41.8082662,23.6995291 C41.8082662,25.2130107 41.4472695,26.4000907 40.7285713,27.260769 M44.8837409,20.5917898 C44.5906268,19.6368177 44.1701504,18.818176 43.6219824,18.1371835 C43.0729905,17.4560261 42.3877393,16.930981 41.5652401,16.5622131 C40.7427409,16.1931155 39.8114979,16.0086491 38.7715109,16.0086491 C38.0717605,16.0086491 37.4456594,16.0937113 36.8689873,16.2643304 C36.2936333,16.4339603 35.7537034,16.6228777 35.4241765,16.8299284 L35.4241765,9.40313695 C35.4241765,9.4029721 35.3867752,9.401983 35.3790313,9.401983 C34.842891,9.401983 32.5057214,9.82778879 31.9713935,10.361406 C31.9704049,10.36256 31.9641439,10.3666812 31.9641439,10.3681648 L31.9641439,30.7087573 C32.6231977,30.9174565 33.5002336,31.1063738 34.5313233,31.2764983 C35.5615892,31.4466228 36.6440852,31.5316851 37.7789759,31.5316851 C38.9512679,31.5316851 40.0006463,31.3519993 40.9271113,30.9927927 C41.8534114,30.6337508 42.6432874,30.1129918 43.2957507,29.4319993 C43.9478845,28.7506771 44.4487654,27.9328596 44.798723,26.9770633 C45.1485158,26.0220912 45.3234946,24.9482627 45.3234946,23.7562373 C45.3234946,22.6022921 45.1770199,21.5475862 44.8837409,20.5917898" fill="#212223" />
              <path d="M50.4476382,16.3266764 C50.4476382,16.3266764 48.8495974,16.3156315 48.391555,16.6112063 C47.8461879,16.9629948 47.5183086,17.4402335 47.5169905,18.063364 C47.5156724,18.6498978 47.7051504,23.3299699 47.7817654,23.787262 C47.8582157,24.244554 48.3319106,23.9418906 48.5350639,25.1078698 C48.7382173,26.2735194 49.2237752,31.25065 49.3452059,31.3721439 C49.5226561,31.5496866 50.2988568,31.6912922 50.4771308,31.6912922 C50.6554049,31.6912922 51.431276,31.5496866 51.6087263,31.3721439 C51.7303217,31.25065 52.2150558,26.2735194 52.4180444,25.1078698 C52.6213625,23.9418906 53.0930803,24.244554 53.1696953,23.787262 C53.2461455,23.3299699 53.4319987,18.6498978 53.4308454,18.063364 C53.4293625,17.4402335 53.0939041,16.9629948 52.5487018,16.6112063 C52.1224587,16.3362377 50.6965958,16.3266764 50.5001977,16.3266764 L50.4176512,16.3266764" fill="#212223" />
              <path d="M52.4909852,13.6918733 C52.4909852,14.7836703 51.6060406,15.6675923 50.518437,15.6675923 C49.4275382,15.6675923 48.5447356,14.7836703 48.5447356,13.6918733 C48.5447356,12.6030435 49.4275382,11.7192863 50.518437,11.7192863 C51.6060406,11.7192863 52.4909852,12.6030435 52.4909852,13.6918733" fill="#212223" />
              <path d="M49.4121987,6.37759148 C50.4485608,5.51542955 52.0507207,3.91836937 52.0503912,2.70029776 C52.0500617,0.847226582 51.0583504,6.5939727e-05 51.0583504,6.5939727e-05 C51.0583504,6.5939727e-05 51.4898659,1.46392788 48.1138626,4.57166721 C45.2077648,7.24700678 45.617861,9.68628213 45.6275821,9.84404293 C45.7203439,11.3435123 46.3382069,13.081189 47.4309181,13.8076799 C47.0010502,13.1512499 46.7468202,12.364589 46.7239181,11.5322648 C46.725401,11.2843314 46.5054418,8.80549223 49.4121987,6.37759148" fill="#E00000" />
              <path d="M54.9206036,11.7531134 C54.8626069,10.2749096 54.3905595,10.1563829 53.842721,8.84517146 C53.0676737,6.73724324 54.3912186,4.9347808 52.9210343,2.69612707 C52.4700767,5.54983361 50.343969,6.37853112 48.7965106,8.2075343 C47.5873116,9.63694273 47.2615742,11.4786393 47.8456607,12.7713877 C48.228571,11.6632705 49.281739,10.8650701 50.5184535,10.8650701 C52.0769511,10.8650701 53.3448059,12.1330911 53.3448059,13.6919062 C53.3448059,14.2660764 53.1726281,14.8006828 52.878031,15.2472596 C54.2246427,14.7624377 54.9759641,13.1665315 54.9206036,11.7531134" fill="#E00000" />
            </g>
          </g>
        </g>
      </svg>